<?xml version="1.0"?><svg width="1920" height="1080" xmlns="http://www.w3.org/2000/svg" xmlns:xlink="http://www.w3.org/1999/xlink">
 <title>Red Car - Top View</title>
 <defs>
  <linearGradient id="linearGradient3876">
   <stop stop-color="#000000" offset="0" id="stop3878"/>
   <stop stop-color="#b3b3b3" stop-opacity="0" offset="1" id="stop3880"/>
  </linearGradient>
  <linearGradient id="linearGradient3866">
   <stop stop-color="#000000" offset="0" id="stop3868"/>
   <stop stop-color="#cccccc" stop-opacity="0" offset="1" id="stop3870"/>
  </linearGradient>
  <linearGradient id="linearGradient3767">
   <stop stop-color="#333333" offset="0" id="stop3769"/>
   <stop stop-color="#808080" stop-opacity="0" offset="1" id="stop3771"/>
  </linearGradient>
  <linearGradient id="linearGradient3759">
   <stop stop-color="#1a1a1a" offset="0" id="stop3761"/>
   <stop stop-color="#f30000" stop-opacity="0" offset="1" id="stop3763"/>
  </linearGradient>
  <linearGradient gradientUnits="userSpaceOnUse" xlink:href="#linearGradient3759" id="linearGradient3765" y2="535.37097" x2="883.75842" y1="542.3974" x1="897.22186"/>
  <linearGradient gradientUnits="userSpaceOnUse" xlink:href="#linearGradient3767" id="linearGradient3773" y2="533.5" x2="874.86749" y1="537.5" x1="879.89642"/>
  <linearGradient gradientUnits="userSpaceOnUse" xlink:href="#linearGradient3759" id="linearGradient3785" y2="535.37097" x2="876.64569" y1="552.05042" x1="880.71014"/>
  <linearGradient gradientUnits="userSpaceOnUse" xlink:href="#linearGradient3767" id="linearGradient3789" y2="528.41949" x2="876.13763" y1="528.35504" x1="887.89642"/>
  <linearGradient gradientTransform="translate(-22,316.2677)" gradientUnits="userSpaceOnUse" xlink:href="#linearGradient3767" id="linearGradient3811" y2="528.41949" x2="876.13763" y1="528.35504" x1="887.89642"/>
  <linearGradient gradientTransform="translate(-24,320.2677)" gradientUnits="userSpaceOnUse" xlink:href="#linearGradient3767" id="linearGradient3813" y2="533.5" x2="874.86749" y1="537.5" x1="879.89642"/>
  <linearGradient gradientUnits="userSpaceOnUse" xlink:href="#linearGradient3767" id="linearGradient3843" y2="528.41949" x2="876.13763" y1="528.35504" x1="887.89642"/>
  <linearGradient gradientUnits="userSpaceOnUse" xlink:href="#linearGradient3767" id="linearGradient3845" y2="533.5" x2="874.86749" y1="537.5" x1="879.89642"/>
  <linearGradient gradientUnits="userSpaceOnUse" xlink:href="#linearGradient3759" id="linearGradient3847" y2="535.37097" x2="883.75842" y1="542.3974" x1="897.22186"/>
  <linearGradient gradientUnits="userSpaceOnUse" xlink:href="#linearGradient3759" id="linearGradient3849" y2="535.37097" x2="876.64569" y1="552.05042" x1="880.71014"/>
  <linearGradient gradientTransform="translate(-22,316.2677)" gradientUnits="userSpaceOnUse" xlink:href="#linearGradient3767" id="linearGradient3851" y2="528.41949" x2="876.13763" y1="528.35504" x1="887.89642"/>
  <linearGradient gradientTransform="translate(-24,320.2677)" gradientUnits="userSpaceOnUse" xlink:href="#linearGradient3767" id="linearGradient3853" y2="533.5" x2="874.86749" y1="537.5" x1="879.89642"/>
  <linearGradient gradientTransform="matrix(0.99043406,0.13798685,-0.13798685,0.99043406,130.62129,-29.069768)" gradientUnits="userSpaceOnUse" xlink:href="#linearGradient3866" id="linearGradient3872" y2="863.93677" x2="242.62505" y1="865.19409" x1="263.89166"/>
  <linearGradient gradientTransform="matrix(0.99043406,0.13798685,-0.13798685,0.99043406,120.60901,-30.101958)" gradientUnits="userSpaceOnUse" xlink:href="#linearGradient3876" id="linearGradient3874" y2="863.93677" x2="232.43333" y1="864.27179" x1="252.14371"/>
  <linearGradient gradientTransform="matrix(0.99043406,-0.13798685,-0.13798685,-0.99043406,120.60901,1463.2521)" gradientUnits="userSpaceOnUse" xlink:href="#linearGradient3876" id="linearGradient3886" y2="863.93677" x2="232.43333" y1="864.27179" x1="252.14371"/>
  <linearGradient gradientTransform="matrix(0.99043406,-0.13798685,-0.13798685,-0.99043406,130.62129,1462.2199)" gradientUnits="userSpaceOnUse" xlink:href="#linearGradient3866" id="linearGradient3888" y2="863.93677" x2="242.62505" y1="865.19409" x1="263.89166"/>
  <linearGradient gradientTransform="matrix(0.99043406,0.13798685,-0.13798685,0.99043406,146.04655,-33.884618)" gradientUnits="userSpaceOnUse" xlink:href="#linearGradient3759" id="linearGradient3960" y2="863.93677" x2="232.43333" y1="865.07489" x1="254.25746"/>
  <linearGradient gradientTransform="matrix(0.99043406,0.13798685,-0.13798685,0.99043406,156.30883,-32.602428)" gradientUnits="userSpaceOnUse" xlink:href="#linearGradient3759" id="linearGradient3962" y2="863.93677" x2="242.62505" y1="865.19409" x1="263.89166"/>
  <linearGradient gradientTransform="translate(21.43754,297.90666)" gradientUnits="userSpaceOnUse" xlink:href="#linearGradient3759" id="linearGradient3991" y2="535.37097" x2="876.64569" y1="552.05042" x1="880.71014"/>
  <linearGradient gradientTransform="translate(21.43754,297.90666)" gradientUnits="userSpaceOnUse" xlink:href="#linearGradient3759" id="linearGradient3994" y2="535.37097" x2="883.75842" y1="542.3974" x1="897.22186"/>
  <linearGradient gradientTransform="translate(21.43754,297.90666)" gradientUnits="userSpaceOnUse" xlink:href="#linearGradient3759" id="linearGradient3997" y2="533.5" x2="874.86749" y1="537.5" x1="879.89642"/>
  <linearGradient gradientTransform="translate(21.43754,297.90666)" gradientUnits="userSpaceOnUse" xlink:href="#linearGradient3759" id="linearGradient4000" y2="528.41949" x2="876.13763" y1="528.35504" x1="887.89642"/>
  <linearGradient gradientTransform="matrix(0.89332217,0,0,0.89332217,92.369757,365.14619)" gradientUnits="userSpaceOnUse" xlink:href="#linearGradient3759" id="linearGradient4008" y2="533.5" x2="874.86749" y1="537.5" x1="879.89642"/>
  <linearGradient gradientTransform="matrix(0.89332217,0,0,0.89332217,94.156401,361.5729)" gradientUnits="userSpaceOnUse" xlink:href="#linearGradient3759" id="linearGradient4011" y2="528.41949" x2="876.13763" y1="528.35504" x1="887.89642"/>
  <linearGradient gradientTransform="translate(21.43754,297.90666)" gradientUnits="userSpaceOnUse" xlink:href="#linearGradient3759" id="linearGradient4131" y2="501.07629" x2="835.98706" y1="552.05042" x1="880.71014"/>
  <linearGradient gradientTransform="translate(21.43754,297.90666)" gradientUnits="userSpaceOnUse" xlink:href="#linearGradient3759" id="linearGradient4133" y2="531.909" x2="815.8241" y1="537.5" x1="879.89642"/>
  <linearGradient gradientTransform="matrix(0.89332217,0,0,0.89332217,92.369757,365.14619)" gradientUnits="userSpaceOnUse" xlink:href="#linearGradient3759" id="linearGradient4135" y2="533.5" x2="812.13739" y1="537.5" x1="879.89642"/>
  <linearGradient gradientTransform="matrix(0.89332217,0,0,0.89332217,94.156401,361.5729)" gradientUnits="userSpaceOnUse" xlink:href="#linearGradient3759" id="linearGradient4137" y2="529.60681" x2="805.29413" y1="528.35504" x1="887.89642"/>
  <linearGradient gradientTransform="matrix(0.99043406,0.13798685,-0.13798685,0.99043406,146.04655,-33.884618)" gradientUnits="userSpaceOnUse" xlink:href="#linearGradient3759" id="linearGradient4139" y2="867.67596" x2="205.59436" y1="873.13715" x1="229.69746"/>
  <linearGradient gradientTransform="matrix(0.99043406,0.13798685,-0.13798685,0.99043406,156.30883,-32.602428)" gradientUnits="userSpaceOnUse" xlink:href="#linearGradient3759" id="linearGradient4141" y2="872.64813" x2="216.55965" y1="873.05804" x1="238.83344"/>
  <linearGradient xlink:href="#linearGradient3759" id="linearGradient4149" y2="19.592937" x2="13.695145" y1="19.872129" x1="14.678357"/>
  <linearGradient xlink:href="#linearGradient3759" id="linearGradient4153" y2="22.120347" x2="13.615251" y1="22.266809" x1="16.491694"/>
  <linearGradient xlink:href="#linearGradient3759" id="linearGradient4155" y2="19.594922" x2="12.749702" y1="19.799639" x1="15.469636"/>
  <linearGradient xlink:href="#linearGradient3759" id="linearGradient4185" y2="17.003155" x2="13.695145" y1="16.723962" x1="14.678357"/>
  <linearGradient xlink:href="#linearGradient3759" id="linearGradient4187" y2="17.109569" x2="15.211872" y1="17.111929" x1="15.711045"/>
  <linearGradient xlink:href="#linearGradient3759" id="linearGradient4189" y2="17.001172" x2="12.749702" y1="16.796455" x1="15.469636"/>
  <linearGradient xlink:href="#linearGradient3759" id="linearGradient4191" y2="12.678005" x2="7.27572" y1="12.486938" x1="7.532872"/>
  <linearGradient xlink:href="#linearGradient3759" id="linearGradient4193" y2="13.610568" x2="6.363285" y1="12.224447" x1="7.217497"/>
  <linearGradient xlink:href="#linearGradient3759" id="linearGradient4195" y2="18.923824" x2="13.570121" y1="18.969658" x1="17.076677"/>
  <linearGradient xlink:href="#linearGradient3759" id="linearGradient4197" y2="18.726499" x2="13.615251" y1="18.580038" x1="16.491694"/>
  <linearGradient xlink:href="#linearGradient3759" id="linearGradient4199" y2="25.952873" x2="5.286707" y1="25.448389" x1="6.884073"/>
  <linearGradient xlink:href="#linearGradient3759" id="linearGradient4201" y2="27.72477" x2="6.109362" y1="27.50684" x1="7.706729"/>
  <linearGradient xlink:href="#linearGradient3759" id="linearGradient4203" y2="19.486515" x2="15.211872" y1="19.484156" x1="15.711045"/>
  <linearGradient xlink:href="#linearGradient3759" id="linearGradient4205" y2="14.75762" x2="7.27572" y1="14.948688" x1="7.532872"/>
  <linearGradient xlink:href="#linearGradient3759" id="linearGradient4207" y2="13.825057" x2="6.363285" y1="15.211179" x1="7.217497"/>
  <linearGradient xlink:href="#linearGradient3759" id="linearGradient4209" y2="21.923027" x2="13.570121" y1="21.877193" x1="17.076677"/>
  <linearGradient xlink:href="#linearGradient3759" id="linearGradient4211" y2="31.194479" x2="5.286707" y1="31.698963" x1="6.884073"/>
  <linearGradient xlink:href="#linearGradient3759" id="linearGradient4213" y2="34.164553" x2="6.109362" y1="34.382484" x1="7.706729"/>
 </defs>
 <g>
  <title>Layer 1</title>
  <g externalResourcesRequired="false" display="inline" id="layer1">
   <g externalResourcesRequired="false" id="g3890">
    <path fill="#000000" fill-opacity="0.996078" stroke="#191919" stroke-width="14" stroke-miterlimit="4" id="path3855" d="m1044.91626,155.003342c-2.295776,0.014862 -7.184814,0.505539 -9.844238,1.554489l-5.326538,2.487213l13.173584,59.590088l-189.945007,0.466339c-3.707703,0.00827 -7.438232,-0.023163 -11.175903,-0.051697c-7.475403,-0.056885 -15.013062,-0.17334 -22.589844,-0.362701c-11.098389,-0.277405 -22.323853,-0.684723 -33.575745,-1.191833c-0.602478,-0.027252 -1.204346,-0.075806 -1.80719,-0.103638c-22.724976,-1.044952 -45.666626,-2.473434 -68.530273,-4.041733c-30.933655,-2.126938 -61.665771,-4.489334 -91.500793,-6.4254c-22.10968,-1.434753 -43.726196,-2.619186 -64.488037,-3.31633c-14.258545,-0.478714 -28.099365,-0.756943 -41.470154,-0.673584c-6.568054,0.041016 -13.039124,0.154709 -19.355896,0.362732c-6.316895,0.208069 -12.753418,0.589111 -19.260864,1.088181c-3.253723,0.249466 -6.510132,0.514404 -9.796814,0.829086c-9.844788,0.94249 -19.852661,2.191086 -29.818634,3.627182c-0.01535,0.001633 -0.032135,-0.001617 -0.047485,0c-6.654297,0.959366 -13.268219,2.03212 -19.879059,3.160843c-6.610809,1.128784 -13.199677,2.317856 -19.688812,3.575439c-6.473572,1.254562 -12.890778,2.595627 -19.16568,3.938126c-0.015198,0.003326 -0.032288,-0.003326 -0.047485,0c-3.144745,0.673004 -6.193604,1.333466 -9.273743,2.020844c-9.224548,2.058868 -18.161407,4.172028 -26.632233,6.269958c-0.01535,0.003296 -0.032104,-0.003387 -0.047485,0c-5.655884,1.40097 -11.090118,2.777649 -16.312225,4.145355c-10.44574,2.733276 -19.959625,5.363495 -28.201569,7.720825c-12.362946,3.53598 -21.888092,6.511841 -27.535828,8.290771c-3.764587,1.186859 -5.802063,1.865417 -5.802063,1.865417l-20.83017,6.218109c-1.373352,0.412384 -2.706116,1.148865 -3.994873,2.176361c-0.437836,0.348999 -0.855804,0.722778 -1.284027,1.139923c-1.673401,1.624359 -3.273529,3.765167 -4.803345,6.373566c-0.006958,0.011627 0.006989,0.040222 0,0.051697c-0.761444,1.301208 -1.556061,2.720123 -2.282776,4.249054c-0.006378,0.013245 0.00647,0.038452 0,0.051727c-0.726807,1.531616 -1.447449,3.174011 -2.140045,4.922607c-0.005646,0.014862 0.005615,0.036865 0,0.051758c-5.58075,14.110016 -10.074738,35.039063 -13.601471,60.056335c-0.002319,0.016663 0.002289,0.035156 0,0.051727c-0.054749,0.388245 -0.08844,0.801575 -0.14267,1.191803c-0.767975,5.524139 -1.509766,11.272522 -2.187683,17.151581c-0.046356,0.402374 -0.09668,0.787964 -0.14267,1.191833c-0.763306,6.704132 -1.440765,13.600952 -2.092499,20.67514c-0.001556,0.016571 0.001495,0.034973 0,0.051666c-0.325012,3.529266 -0.653046,7.12149 -0.951202,10.726227c-0.001343,0.016602 0.001404,0.034607 0,0.051697c-0.298004,3.605347 -0.58429,7.211792 -0.856049,10.881683c-0.00119,0.016541 0.001343,0.034607 0,0.051697c-0.544373,7.358276 -1.032074,14.833557 -1.474213,22.385132c-0.001068,0.016693 0.000946,0.034607 0,0.051697c-1.328033,22.690399 -2.221313,46.078064 -2.710785,68.917175c-0.000458,0.017273 0.000366,0.034424 0,0.051636c-0.326355,15.237549 -0.475769,30.200562 -0.475769,44.615479c0,1.604431 0.041931,3.2547 0.047577,4.870728c-0.005646,1.616089 -0.047577,3.266235 -0.047577,4.870789c0,14.414795 0.149414,29.377808 0.475616,44.614868c0.000366,0.017456 -0.000366,0.034485 0,0.051758c0.489502,22.83905 1.382843,46.226746 2.710785,68.917114c0.000946,0.017151 -0.000977,0.034973 0,0.051758c0.4422,7.551575 0.92984,15.026794 1.474304,22.385071c0.001251,0.017029 -0.001343,0.035034 0,0.051697c0.271667,3.669922 0.558014,7.276306 0.855957,10.881714c0.001404,0.01709 -0.001343,0.035034 0,0.051636c0.298157,3.604858 0.62619,7.19696 0.951202,10.726196c0.001495,0.016907 -0.001556,0.035095 0,0.051758c0.651733,7.074219 1.329193,13.971069 2.092499,20.675171c0.045929,0.403809 0.096313,0.789429 0.14267,1.191833c0.677917,5.878967 1.419708,11.627441 2.187683,17.151428c0.05423,0.39032 0.087921,0.803711 0.14267,1.191833c0.002289,0.016663 -0.002319,0.035767 0,0.05188c3.526733,25.017212 8.020813,45.946289 13.601471,60.056274c0.005646,0.014893 -0.005646,0.037415 0,0.051758c0.692596,1.748535 1.413239,3.391052 2.140045,4.922546c0.006378,0.013306 -0.006378,0.03833 0,0.051758c0.726746,1.528931 1.521271,2.947815 2.282806,4.249023c0.006958,0.011719 -0.00705,0.0401 0,0.051697c1.529785,2.608398 3.129822,4.749268 4.803253,6.373596c0.428284,0.417175 0.846252,0.791016 1.284088,1.139954c1.288757,1.027466 2.621521,1.763977 3.994873,2.176392l20.8302,6.218079c0,0 2.037445,0.678589 5.802032,1.865356c5.647797,1.778992 15.172821,4.754761 27.535736,8.290771c8.241974,2.357361 17.75592,4.987671 28.20166,7.720947c5.222046,1.367615 10.656342,2.744324 16.312225,4.145386c0.015533,0.003235 0.032135,-0.003418 0.047485,0c8.470825,2.0979 17.407623,4.210999 26.632172,6.269836c3.0802,0.687378 6.129059,1.3479 9.273743,2.020874c0.015411,0.003357 0.032257,-0.003418 0.047546,0c6.274902,1.342468 12.692108,2.683594 19.16568,3.93811c6.489136,1.257629 13.078003,2.446655 19.688843,3.5755c6.610748,1.128662 13.22467,2.201477 19.879028,3.160767c0.015442,0.001587 0.032135,-0.001648 0.047485,0c9.965973,1.436096 19.973785,2.684692 29.818542,3.627258c3.286743,0.314636 6.543091,0.579529 9.796875,0.829102c6.507507,0.499023 12.943909,0.880005 19.260803,1.088135c6.316895,0.208008 12.787903,0.321655 19.355957,0.362732c13.37085,0.083313 27.211548,-0.194885 41.470093,-0.673645c20.761902,-0.697144 42.378418,-1.881592 64.488159,-3.316284c29.834839,-1.936157 60.566956,-4.298401 91.50061,-6.425415c22.863708,-1.568298 45.805481,-2.996765 68.530457,-4.041809c0.602783,-0.027771 1.204651,-0.076294 1.80719,-0.103577c11.251831,-0.507141 22.477356,-0.914429 33.575623,-1.191772c7.576904,-0.189392 15.114502,-0.305847 22.589844,-0.362793c3.737793,-0.028503 7.468323,-0.060486 11.176025,-0.051697l189.944763,0.46637l-13.173218,59.590027l5.326294,2.487183c2.659546,1.04895 7.548584,1.539734 9.844482,1.554565c1.29126,0.008301 2.670898,-0.122803 4.089966,-0.41449c0.472656,-0.096985 0.94873,-0.233948 1.426636,-0.362732c0.463623,-0.125427 0.962891,-0.259766 1.426758,-0.414551c0.956421,-0.320129 1.922974,-0.698975 2.853516,-1.140015c2.772217,-1.315735 5.378662,-3.202637 7.276245,-5.492615c0.015259,-0.0177 0.033081,-0.03418 0.047607,-0.051758c0.950806,-1.157104 1.692627,-2.406372 2.235107,-3.782715l18.5,-51.921021l167.307373,0.414612c1.136597,0.619995 2.24646,1.235535 3.376587,1.81366c4.533813,2.320557 8.995483,4.306274 13.45874,6.010742c2.225342,0.849915 4.44043,1.617493 6.658081,2.331848c7.761353,2.499512 15.504517,4.230835 23.350708,5.388916c4.483643,0.662048 9.018311,1.150635 13.601563,1.502686c2.291382,0.175964 4.617188,0.298706 6.943359,0.414673c4.652344,0.232056 9.341919,0.352844 14.172119,0.41449c9.659912,0.122864 19.752686,0 30.436768,0c15.842529,0 30.92749,-0.88092 45.322266,-2.590881c5.758057,-0.684082 11.400391,-1.48822 16.930542,-2.435425c11.060303,-1.89447 21.653564,-4.34259 31.81604,-7.254517c2.540527,-0.727905 5.076416,-1.490112 7.561646,-2.279907c7.455566,-2.36908 14.629272,-5.016602 21.591187,-7.92804c2.320435,-0.97052 4.629395,-1.924316 6.895752,-2.953552c4.532715,-2.058655 8.95166,-4.239929 13.268555,-6.529053c2.158569,-1.144592 4.315308,-2.322449 6.420044,-3.523499c4.210083,-2.402283 8.319702,-4.941406 12.317627,-7.56543c1.998901,-1.312012 3.950928,-2.675415 5.896973,-4.041748c9.731323,-6.831787 18.814819,-14.302429 27.25061,-22.436951c6.739746,-6.499207 13.090454,-13.397644 19.022949,-20.67511c0.00769,-0.009949 -0.007568,-0.042175 0,-0.051758c1.476929,-1.812195 2.947754,-3.634033 4.375366,-5.492615c0.007568,-0.009949 -0.007568,-0.041626 0,-0.051697c1.427246,-1.858765 2.854492,-3.743774 4.232788,-5.648132c0.007568,-0.009888 -0.00769,-0.041321 0,-0.051758c4.147949,-5.734131 8.085815,-11.638367 11.794312,-17.773315c0.007568,-0.011658 -0.00769,-0.039795 0,-0.051758c1.230835,-2.037231 2.478882,-4.086304 3.661865,-6.166199c0.00769,-0.013306 -0.007568,-0.039429 0,-0.051758c3.56189,-6.264709 6.950073,-12.688965 10.082153,-19.327881c0.006226,-0.013245 -0.006104,-0.038269 0,-0.051758c1.039551,-2.203918 2.051147,-4.440613 3.043701,-6.684387c0.006226,-0.013306 -0.006104,-0.037964 0,-0.051819c0.99231,-2.243958 2.002808,-4.505005 2.948608,-6.788025c0.006226,-0.014893 -0.005981,-0.037659 0,-0.051697c1.896973,-4.580505 3.710449,-9.205566 5.421631,-13.938843c0.005981,-0.014893 -0.006104,-0.03717 0,-0.051758c0.852661,-2.359375 1.666016,-4.7547 2.473022,-7.150879c0.004395,-0.014832 -0.004639,-0.036682 0,-0.051758c0.806519,-2.39624 1.616699,-4.821899 2.377808,-7.254333c0.760986,-2.432739 1.519531,-4.889954 2.235229,-7.358032c0.004639,-0.014893 -0.004395,-0.036438 0,-0.051758c0.715576,-2.468384 1.421997,-4.958801 2.092651,-7.461731c0.004517,-0.016663 -0.004639,-0.036011 0,-0.051575c0.670166,-2.503235 1.324097,-5.028259 1.949829,-7.565491c0.004517,-0.016602 -0.004517,-0.03595 0,-0.051697c1.884277,-7.644287 3.60437,-15.430725 5.088745,-23.36969l0,-0.051636c0.492432,-2.635498 0.930054,-5.313354 1.379272,-7.979858l0,-0.051819c3.157349,-18.767639 5.268677,-38.240356 6.325073,-58.398132c0.000732,-0.017212 -0.000977,-0.035095 0,-0.05188c0.14917,-2.865051 0.271973,-5.763062 0.380493,-8.653442c0.000488,-0.017029 -0.00061,-0.034912 0,-0.051575c0.216919,-5.798584 0.375366,-11.61908 0.427856,-17.514404c0,-0.01709 -0.000122,-0.035034 0,-0.051697c0.026001,-2.956421 0.015259,-5.932861 0,-8.912598c0,-1.05426 -0.033447,-2.108215 -0.047241,-3.160889c0.015381,-1.052673 0.047241,-2.106628 0.047241,-3.160828c0.015259,-2.979614 0.026001,-5.956238 0,-8.912537c-0.000122,-0.016907 0,-0.034668 0,-0.051758c-0.051758,-5.895325 -0.210938,-11.71582 -0.427856,-17.514343c-0.00061,-0.016846 0.000488,-0.034607 0,-0.051697c-0.108032,-2.890198 -0.231323,-5.78833 -0.380493,-8.653442c-0.000977,-0.016907 0.000732,-0.034546 0,-0.051697c-1.056396,-20.157837 -3.167725,-39.630707 -6.325073,-58.398315l0,-0.051727c-0.449219,-2.666473 -0.886841,-5.34436 -1.379272,-7.979828l0,-0.051758c-1.484375,-7.938843 -3.204468,-15.725311 -5.088745,-23.369629c-0.004517,-0.016571 0.004517,-0.035309 0,-0.051697c-0.625732,-2.53714 -1.279663,-5.062225 -1.949829,-7.565338c-0.004639,-0.016632 0.004517,-0.035339 0,-0.051727c-0.670654,-2.50293 -1.377075,-4.993408 -2.092651,-7.461731c-0.004395,-0.014893 0.004639,-0.036926 0,-0.051758c-0.715698,-2.468079 -1.474243,-4.925323 -2.235229,-7.358002c-0.761108,-2.432465 -1.571289,-4.858032 -2.377808,-7.254456c-0.004639,-0.014801 0.004395,-0.036926 0,-0.051697c-0.807007,-2.396118 -1.620361,-4.791534 -2.473022,-7.150848c-0.006104,-0.014832 0.005981,-0.036896 0,-0.051697c-1.711182,-4.733307 -3.524658,-9.358246 -5.421631,-13.938843c-0.005981,-0.013306 0.006226,-0.036957 0,-0.051758c-0.945679,-2.282928 -1.956299,-4.544128 -2.948608,-6.788055c-0.006104,-0.013275 0.006226,-0.038666 0,-0.051727c-0.992554,-2.243713 -2.00415,-4.48053 -3.043701,-6.684448c-0.006104,-0.013275 0.006226,-0.038635 0,-0.051788c-3.13208,-6.638824 -6.520264,-13.063171 -10.082153,-19.32785c-0.007568,-0.011627 0.00769,-0.038574 0,-0.051727c-1.182983,-2.079834 -2.43103,-4.129089 -3.661865,-6.16626c-0.00769,-0.011627 0.007568,-0.040039 0,-0.051666c-3.708496,-6.13504 -7.64624,-12.039154 -11.794312,-17.773407c-0.00769,-0.009888 0.007568,-0.042023 0,-0.051697c-1.378296,-1.904358 -2.805542,-3.789459 -4.232788,-5.648102c-0.007568,-0.009888 0.007568,-0.041992 0,-0.051697c-1.42749,-1.858704 -2.898438,-3.680511 -4.375366,-5.492676c-0.007568,-0.009918 0.00769,-0.041931 0,-0.051727c-5.932495,-7.277527 -12.283203,-14.175964 -19.022949,-20.675079c-8.435791,-8.134613 -17.519287,-15.605194 -27.25061,-22.437012c-1.946167,-1.366394 -3.898193,-2.729675 -5.896973,-4.041718c-3.997681,-2.624115 -8.1073,-5.163162 -12.317627,-7.565369c-2.104736,-1.20108 -4.261475,-2.379074 -6.420044,-3.52359c-4.317017,-2.289124 -8.736084,-4.470444 -13.268555,-6.528992c-2.266357,-1.029312 -4.575317,-1.983093 -6.895752,-2.953552c-6.961914,-2.91156 -14.13562,-5.55896 -21.591187,-7.92807c-2.485229,-0.789719 -5.021118,-1.552048 -7.561646,-2.279968c-10.162476,-2.91188 -20.755737,-5.360001 -31.81604,-7.25444c-5.530151,-0.947311 -11.172485,-1.751419 -16.930542,-2.43544c-14.394531,-1.712219 -29.47937,-2.592987 -45.322021,-2.592987c-10.684204,0 -20.776978,-0.122864 -30.436768,0c-4.830078,0.061615 -9.519897,0.18248 -14.172241,0.414536c-2.32605,0.115891 -4.651978,0.238602 -6.943237,0.41449c-4.583252,0.352142 -9.117798,0.840683 -13.60144,1.502792c-7.846313,1.158188 -15.589355,2.889389 -23.35083,5.389008c-2.217651,0.714264 -4.432739,1.481781 -6.658081,2.331741c-4.463135,1.704483 -8.924927,3.69017 -13.45874,6.010849c-1.130249,0.578064 -2.23999,1.193573 -3.376587,1.813614l-167.307495,0.41449l-18.499878,-51.921021c-0.542358,-1.376312 -1.284302,-2.625443 -2.235352,-3.782669c-0.015137,-0.01741 -0.032349,-0.034164 -0.047485,-0.051773c-1.897461,-2.290009 -4.504028,-4.176819 -7.276123,-5.492599c-0.930664,-0.440933 -1.896973,-0.819901 -2.853516,-1.139999c-0.463989,-0.154709 -0.963135,-0.2892 -1.426636,-0.414581c-0.477905,-0.128799 -0.954102,-0.265671 -1.42688,-0.362701c-1.419067,-0.291656 -2.798462,-0.422806 -4.090088,-0.41449l0,-0.000656l0,0l0,0l0,0.000015z"/>
    <path fill="#ff0000" id="path2853" d="m1044.91626,155.003342c-2.295776,0.014862 -7.184814,0.507553 -9.844238,1.554489l-5.326538,2.487213l13.173584,59.434601l-189.945007,0.46637c-118.648438,0.274261 -253.423645,-19.07486 -354.493835,-15.752472c-101.070313,3.322372 -231.510193,46.428406 -231.510193,46.428406l-20.8302,6.269897c-29.297577,8.782043 -39.139893,161.449951 -39.139893,276.549561c0,1.845581 0.040588,3.735962 0.047638,5.596252c-0.00705,1.860352 -0.047638,3.750732 -0.047638,5.596252c0,115.099731 9.842316,267.767517 39.139893,276.549622l20.8302,6.269958c0,0 130.43988,43.105957 231.510193,46.428345c101.07019,3.322388 235.845398,-16.026855 354.493835,-15.752502l189.945007,0.46637l-13.173584,59.43457l5.326538,2.487183c2.659424,1.046997 7.54834,1.539673 9.844238,1.554565c1.291626,0.008301 2.671021,-0.123291 4.090088,-0.414612c0.473022,-0.096802 0.948975,-0.23407 1.42688,-0.36261c0.463379,-0.125061 0.962646,-0.260132 1.426636,-0.414612c0.956421,-0.319519 1.922852,-0.699829 2.853516,-1.140015c2.772095,-1.313232 5.378662,-3.155029 7.276123,-5.440674c0.015259,-0.017822 0.033081,-0.034607 0.047485,-0.051819c0.95105,-1.155029 1.692993,-2.408997 2.235352,-3.782654l18.499878,-51.817444l167.307495,0.414612c36.372803,19.802368 69.261475,17.773315 111.997925,17.773315c202.785889,0 285.540405,-143.573669 284.584473,-333.911438c0,-1.29364 -0.028809,-2.596008 -0.047119,-3.886353c0.018311,-1.290222 0.047119,-2.59259 0.047119,-3.886292c0.955933,-190.337646 -81.798584,-333.911377 -284.584351,-333.911377c-42.736572,0 -75.625244,-2.028992 -111.998047,17.773361l-167.307495,0.414566l-18.499878,-51.817444c-0.542358,-1.373657 -1.284302,-2.627609 -2.235352,-3.782684c-0.015137,-0.017242 -0.032349,-0.034119 -0.047485,-0.051682c-1.897461,-2.285736 -4.504028,-4.127518 -7.276123,-5.440842c-0.930664,-0.44014 -1.896973,-0.820465 -2.853516,-1.139984c-0.463989,-0.154449 -0.963135,-0.289536 -1.426636,-0.414597c-0.477905,-0.128632 -0.953857,-0.265823 -1.42688,-0.362686c-1.418945,-0.291153 -2.798462,-0.422821 -4.090088,-0.41452l0,-0.000275l0,0.000076z"/>
    <path opacity="0.9" fill="#000000" id="path3643" d="m725.044861,754.498779c-50.77533,0 -99.387878,2.984802 -144.289551,8.394531c39.051208,80.774963 149.119324,50.184631 312.833557,52.283691c75.615479,0.969543 136.271851,3.116211 184.951172,3.938171c-71.770264,-38.691772 -203.208435,-64.616394 -353.495178,-64.616394z"/>
    <path opacity="0.5" fill="#000000" fill-opacity="0.996078" id="path3658" d="m725.044861,754.498779c-4.8797,0 -9.714111,0.049011 -14.552612,0.103699c1.245239,26.814026 9.782593,50.170105 22.209412,64.409058c7.109253,-0.125366 14.450195,-0.325867 21.971619,-0.570007c-13.035889,-13.584167 -22.207947,-36.857483 -23.921448,-63.942749c-1.904297,-0.008179 -3.79657,0 -5.70697,0z"/>
    <path fill="#000000" fill-rule="nonzero" stroke="#191919" stroke-width="5" stroke-miterlimit="4" id="path3707" d="m1618.933838,708.507507l-7.751831,0.984497c-32.788086,4.166443 -57.356079,43.076538 -59.779663,90.421448l-0.570801,11.81427l7.989502,-8.031677c24.181152,-24.342468 43.073486,-53.902405 56.926514,-87.467773l3.186279,-7.720764z"/>
    <path opacity="0.5" fill="none" stroke="#292929" stroke-width="6" stroke-linecap="round" stroke-linejoin="round" stroke-miterlimit="4" id="path3715" d="m1308.121094,726.744019c0,0 121.257446,-37.468506 160.367798,-53.030823c40.845703,-16.252991 150.449097,-64.909668 150.449097,-64.909668c0,0 -13.30249,70.421448 -46.390747,96.037231c-117.522583,90.982666 -354.114624,89.297913 -354.114624,89.297913"/>
    <path fill="url(#linearGradient4149)" id="path3757" d="m1439.75415,692.486206l-6.753174,3.886292c1.505371,1.918152 2.732544,4.027039 3.614502,6.373535c7.301758,19.428589 -16.338501,48.477783 -40.899536,59.330994c-0.786377,0.347412 -2.758789,1.393799 -5.183838,2.746277l20.735229,-6.425415c26.336914,-14.024109 41.806152,-38.273499 35.002441,-56.377441c-1.394287,-3.709717 -3.614746,-6.907898 -6.515503,-9.534241l-0.000122,0z"/>
    <path fill="url(#linearGradient4203)" id="path3787" d="m1452.818115,685.088989l-6.753174,3.886353c1.505249,1.918213 2.732544,4.0271 3.614502,6.373596c7.301636,19.428589 -16.338501,48.477844 -40.899536,59.330933c-0.786621,0.347473 -2.759033,1.393799 -5.183838,2.746277l20.734985,-6.425415c26.337158,-14.024048 41.806274,-38.273499 35.002319,-56.377258c-1.394043,-3.709961 -3.614624,-6.90802 -6.515137,-9.534485l-0.000122,0z"/>
    <path fill="url(#linearGradient4155)" id="path3752" d="m1462.234009,682.743958l-6.753296,3.886292c1.505249,1.918213 2.732544,4.0271 3.61438,6.373596c7.301758,19.42865 -16.338501,48.477722 -40.899292,59.330933c-0.786621,0.347473 -2.759033,1.39386 -5.183838,2.746338l20.735229,-6.425415c26.336792,-14.024109 41.80603,-38.273499 35.002197,-56.377319c-1.394165,-3.709839 -3.614746,-6.90802 -6.515259,-9.534424l-0.000122,0z"/>
    <path fill="url(#linearGradient4205)" id="path3735" d="m1487.963135,675.658264l-9.416504,3.057129c1.461304,2.840332 2.517944,5.857239 3.091309,9.068115c4.747192,26.586731 -31.901123,56.847534 -65.486572,63.838989c-5.166626,1.075562 -43.95752,14.220459 -48.939941,14.599182l0,6.839905l63.064331,-20.143555c40.002808,-9.113708 68.405762,-37.22229 63.727295,-63.4245c-0.906494,-5.076721 -2.976929,-9.716125 -6.039795,-13.835266l-0.000122,0z"/>
    <path fill="url(#linearGradient4207)" id="path3783" d="m1487.963135,675.658264l-9.416504,3.057129c1.461304,2.840332 2.517944,5.857239 3.091309,9.068115c4.747192,26.586731 -31.901123,56.847534 -65.486572,63.838989c-5.166626,1.075562 -43.95752,14.220459 -48.939941,14.599182l0,6.839905l63.064331,-20.143555c40.002808,-9.113708 68.405762,-37.22229 63.727295,-63.4245c-0.906494,-5.076721 -2.976929,-9.716125 -6.039795,-13.835266l-0.000122,0z"/>
    <path fill="url(#linearGradient4209)" id="path3799" d="m1420.203369,700.145874l-6.032715,3.471802c1.344727,1.713562 2.44104,3.597534 3.22876,5.693665c6.522949,17.35614 -14.595459,43.306335 -36.536133,53.001587c-0.702759,0.310547 -2.464844,1.2453 -4.630859,2.453369l18.523071,-5.739868c23.527344,-12.528137 37.346313,-34.190674 31.268433,-50.36322c-1.245483,-3.314087 -3.229126,-6.171204 -5.82019,-8.517334l-0.000366,0z"/>
    <path fill="url(#linearGradient4153)" id="path3803" d="m1399.190674,706.071045l-6.032715,3.471802c1.344604,1.71344 2.440918,3.597412 3.22876,5.693665c6.522949,17.356018 -14.595459,43.306213 -36.536499,53.001587c-0.702393,0.310547 -2.4646,1.245239 -4.630615,2.453308l18.523071,-5.739929c23.527344,-12.528076 37.346313,-34.190491 31.268433,-50.363037c-1.245605,-3.314148 -3.229126,-6.171143 -5.820313,-8.517212l-0.000122,-0.000183z"/>
    <path fill="url(#linearGradient4211)" id="rect3861" d="m470.781555,738.724792c12.620728,-3.35498 23.566772,-2.452026 30.128906,9.596191l-3.794556,29.675537c-10.462952,10.236267 -20.925903,8.20929 -31.388855,0.257813l5.054504,-39.529541l0,0z"/>
    <path fill="url(#linearGradient4213)" id="path3864" d="m501.639038,744.135986c12.403442,-2.006714 23.081543,-0.94989 28.676086,9.13324l-3.611511,28.244812c-9.867615,4.932678 -19.758179,8.638306 -29.875305,0.245178l4.81073,-37.62323l0,0z"/>
    <path opacity="0.9" fill="#191919" fill-rule="nonzero" stroke-width="5" id="path4025" d="m725.044861,750.375916c-50.912109,0 -99.669617,2.967102 -144.71759,8.39447l-5.564209,0.673584l2.615662,5.388977c10.152405,20.999634 25.204346,35.009399 44.228516,43.837585c19.02417,8.828186 41.960876,12.622864 68.625549,13.990662c53.329285,2.735657 121.678894,-4.362976 203.308472,-3.316284c75.573486,0.968994 136.218262,3.115234 184.951294,3.93811l1.712036,-7.876221c-72.81958,-39.257568 -204.471497,-65.030884 -355.159729,-65.030884zm0,8.290833c138.74707,0 261.375061,22.349609 334.947815,55.911011c-45.582764,-0.965698 -99.243225,-2.663086 -166.356323,-3.523682c-82.084534,-1.052368 -150.627075,6.055908 -203.023132,3.368164c-26.197998,-1.343872 -48.344604,-5.149292 -66.057434,-13.368896c-15.908264,-7.382202 -28.131958,-18.495667 -37.285095,-34.665771c43.079895,-4.946411 89.385864,-7.720825 137.77417,-7.720825z"/>
    <path opacity="0.9" fill="#000000" stroke="#191919" stroke-width="5" stroke-miterlimit="4" id="rect2864" d="m512.224365,343.515076l-118.323242,20.675171c-41.319061,7.219818 -74.490601,80.872925 -77.613922,173.847412c3.123322,92.974487 36.294861,166.627563 77.613922,173.847473l118.323242,20.675171c20.234314,0 36.524048,-17.748901 36.524048,-39.795776l0,-309.453613c0,-22.046936 -16.289734,-39.795837 -36.52417,-39.795837l0.000122,0z"/>
    <path opacity="0.9" fill="#000000" stroke="#191919" stroke-width="5" stroke-miterlimit="4" stroke-dashoffset="0" id="path3703" d="m1162.851196,288.774994c-4.518677,0 -8.968628,0.550842 -13.363525,1.606384c-0.015869,-0.016632 -0.03186,-0.034821 -0.047485,-0.051697l-97.160278,20.416046c-26.979004,10.951599 -48.69873,23.665161 -48.69873,53.061035l0,352.462036c0,29.395874 21.719727,42.109436 48.69873,53.061096l97.160278,20.415955c0.015991,-0.016846 0.031616,-0.034973 0.047485,-0.051697c4.394897,1.055664 8.844849,1.606445 13.363525,1.606445c69.085449,0 125.09314,-95.116333 125.266479,-251.262756c-0.17334,-156.146423 -56.18103,-251.262634 -125.266479,-251.262634l0,-0.000214z"/>
    <path opacity="0.9" fill="#000000" id="path4157" d="m725.044861,317.576202c-50.77533,0 -99.387878,-2.984711 -144.289551,-8.39447c39.051208,-80.774902 149.119324,-50.184662 312.833557,-52.283722c75.615479,-0.969574 136.271851,-3.11615 184.951172,-3.938141c-71.770264,38.691711 -203.208435,64.616333 -353.495178,64.616333z"/>
    <path opacity="0.5" fill="#000000" fill-opacity="0.996078" id="path4159" d="m725.044861,321.576202c-4.8797,0 -9.714111,-0.04892 -14.552612,-0.103638c1.245239,-26.814117 9.782593,-50.170074 22.209412,-64.409027c7.109253,0.125336 14.450195,0.325867 21.971619,0.569946c-13.035889,13.584198 -22.207947,36.857605 -23.921448,63.942719c-1.904297,0.00824 -3.79657,0 -5.70697,0z"/>
    <path fill="#000000" fill-rule="nonzero" stroke="#191919" stroke-width="5" stroke-miterlimit="4" id="path4161" d="m1620.933838,367.567566l-7.751831,-0.984497c-32.788086,-4.166473 -57.356079,-43.076569 -59.779663,-90.421448l-0.570801,-11.814331l7.989502,8.031708c24.181152,24.342468 43.073486,53.902374 56.926514,87.467804l3.186279,7.720764z"/>
    <path opacity="0.5" fill="none" stroke="#292929" stroke-width="6" stroke-linecap="round" stroke-linejoin="round" stroke-miterlimit="4" id="path4163" d="m1308.121094,349.331024c0,0 121.257446,37.468384 160.367798,53.030853c40.845703,16.25293 150.449097,64.909576 150.449097,64.909576c0,0 -13.30249,-70.421356 -46.390747,-96.037292c-117.522583,-90.982574 -354.114624,-89.297668 -354.114624,-89.297668"/>
    <path fill="url(#linearGradient4185)" id="path4165" d="m1439.75415,383.588898l-6.753174,-3.886322c1.505371,-1.918152 2.732544,-4.0271 3.614502,-6.373566c7.301758,-19.42868 -16.338501,-48.477753 -40.899536,-59.330902c-0.786377,-0.347534 -2.758789,-1.393921 -5.183838,-2.746338l20.735229,6.425354c26.336914,14.024109 41.806152,38.273499 35.002441,56.37738c-1.394287,3.709869 -3.614746,6.90799 -6.515503,9.534393l-0.000122,0z"/>
    <path fill="url(#linearGradient4187)" id="path4167" d="m1452.818115,390.986115l-6.753174,-3.886322c1.505249,-1.918152 2.732544,-4.027069 3.614502,-6.373474c7.301636,-19.428711 -16.338501,-48.477844 -40.899536,-59.330994c-0.786621,-0.347565 -2.759033,-1.39389 -5.183838,-2.746368l20.734985,6.425415c26.337158,14.024109 41.806274,38.27356 35.002319,56.37735c-1.394043,3.709869 -3.614624,6.90802 -6.515137,9.534393l-0.000122,0z"/>
    <path fill="url(#linearGradient4189)" id="path4169" d="m1462.234009,393.331055l-6.753296,-3.886261c1.505249,-1.918182 2.732544,-4.02713 3.61438,-6.373566c7.301758,-19.428741 -16.338501,-48.477844 -40.899292,-59.330963c-0.786621,-0.347534 -2.759033,-1.393951 -5.183838,-2.746277l20.735229,6.425293c26.336792,14.024139 41.80603,38.27356 35.002197,56.37735c-1.394165,3.709961 -3.614746,6.908051 -6.515259,9.534424l-0.000122,0z"/>
    <path fill="url(#linearGradient4191)" id="path4171" d="m1487.963135,400.416901l-9.416504,-3.05722c1.461304,-2.840118 2.517944,-5.857117 3.091309,-9.068024c4.747192,-26.586761 -31.901123,-56.847565 -65.486572,-63.83905c-5.166626,-1.075531 -43.95752,-14.220398 -48.939941,-14.599182l0,-6.839874l63.064331,20.143585c40.002808,9.113708 68.405762,37.222321 63.727295,63.42453c-0.906494,5.076691 -2.976929,9.716034 -6.039795,13.835236l-0.000122,0z"/>
    <path fill="url(#linearGradient4193)" id="path4173" d="m1487.963135,400.416901l-9.416504,-3.05722c1.461304,-2.840118 2.517944,-5.857117 3.091309,-9.068024c4.747192,-26.586761 -31.901123,-56.847565 -65.486572,-63.83905c-5.166626,-1.075531 -43.95752,-14.220398 -48.939941,-14.599182l0,-6.839874l63.064331,20.143585c40.002808,9.113708 68.405762,37.222321 63.727295,63.42453c-0.906494,5.076691 -2.976929,9.716034 -6.039795,13.835236l-0.000122,0z"/>
    <path fill="url(#linearGradient4195)" id="path4175" d="m1420.203369,375.929138l-6.032715,-3.471771c1.344727,-1.713501 2.44104,-3.597473 3.22876,-5.693665c6.522949,-17.35611 -14.595459,-43.306244 -36.536133,-53.001617c-0.702759,-0.310486 -2.464844,-1.245209 -4.630859,-2.453339l18.523071,5.739899c23.527344,12.528076 37.346313,34.190582 31.268433,50.36322c-1.245483,3.314026 -3.229126,6.171082 -5.82019,8.517273l-0.000366,0z"/>
    <path fill="url(#linearGradient4197)" id="path4177" d="m1399.190674,370.003967l-6.032715,-3.47171c1.344604,-1.713501 2.440918,-3.597473 3.22876,-5.693695c6.522949,-17.356079 -14.595459,-43.306244 -36.536499,-53.001587c-0.702393,-0.310455 -2.4646,-1.245178 -4.630615,-2.453339l18.523071,5.739899c23.527344,12.528107 37.346313,34.190582 31.268433,50.363098c-1.245605,3.314056 -3.229126,6.171112 -5.820313,8.517273l-0.000122,0.000061z"/>
    <path fill="url(#linearGradient4199)" id="path4179" d="m470.781555,337.350159c12.620728,3.355072 23.566772,2.452118 30.128906,-9.596039l-3.794556,-29.675598c-10.462952,-10.236298 -20.925903,-8.20929 -31.388855,-0.257751l5.054504,39.529388l0,0z"/>
    <path fill="url(#linearGradient4201)" id="path4181" d="m501.639038,331.939178c12.403442,2.006714 23.081543,0.949799 28.676086,-9.133362l-3.611511,-28.244598c-9.867615,-4.932678 -19.758179,-8.638397 -29.875305,-0.2453l4.81073,37.62326l0,0z"/>
    <path opacity="0.9" fill="#191919" fill-rule="nonzero" stroke-width="5" id="path4183" d="m725.044861,325.699097c-50.912109,0 -99.669617,-2.967041 -144.71759,-8.394409l-5.564209,-0.673584l2.615662,-5.389069c10.152405,-20.999573 25.204346,-35.009308 44.228516,-43.837524c19.02417,-8.828217 41.960876,-12.622894 68.625549,-13.990692c53.329285,-2.735596 121.678894,4.363007 203.308472,3.316315c75.573486,-0.968964 136.218262,-3.115204 184.951294,-3.938141l1.712036,7.876251c-72.81958,39.257477 -204.471497,65.030853 -355.159729,65.030853zm0,-8.290741c138.74707,0 261.375061,-22.349731 334.947815,-55.91098c-45.582764,0.965698 -99.243225,2.662994 -166.356323,3.523529c-82.084534,1.052429 -150.627075,-6.055847 -203.023132,-3.368103c-26.197998,1.343872 -48.344604,5.149231 -66.057434,13.368866c-15.908264,7.382324 -28.131958,18.495667 -37.285095,34.665894c43.079895,4.94632 89.385864,7.720795 137.77417,7.720795z"/>
   </g>
  </g>
 </g>
 <g>
  <title>Layer 2</title>
 </g>
</svg>